<?xml version="1.0" encoding="UTF-8" standalone="no"?>
<svg width="64px" height="81px" viewBox="0 0 64 81" version="1.1" xmlns="http://www.w3.org/2000/svg" xmlns:xlink="http://www.w3.org/1999/xlink" xmlns:sketch="http://www.bohemiancoding.com/sketch/ns">
    <!-- Generator: Sketch 3.3.2 (12043) - http://www.bohemiancoding.com/sketch -->
    <title>logo</title>
    <desc>Created with Sketch.</desc>
    <defs>
        <linearGradient x1="50%" y1="0%" x2="50%" y2="100%" id="linearGradient-1">
            <stop stop-color="#FFFFFF" stop-opacity="0.5" offset="0%"></stop>
            <stop stop-color="#000000" stop-opacity="0.5" offset="100%"></stop>
        </linearGradient>
        <path d="M32.6120726,51.8918271 C37.0394662,52.49631 41.3881964,53.0899927 45.8233273,53.6952816 C44.3122814,51.1796658 42.8400836,48.7283669 41.3561185,46.2570799 L32.6120726,51.8918271 L32.6120726,51.8918271 Z M47.0729142,37.9672827 C46.6826601,38.5533893 46.2916,39.1390123 45.9018295,39.7254412 C44.5632626,41.7392557 43.224857,43.7530701 41.8875798,45.7678517 C41.8131075,45.8800438 41.7165514,45.9690236 41.8214897,46.1419863 C43.1136322,48.2757302 44.3956194,50.4157606 45.6808305,52.5538568 C45.8836144,52.8915612 46.088655,53.227976 46.3509199,53.5519788 C46.6107669,48.3626145 46.8704528,43.173089 47.1301386,37.9837247 L47.0729142,37.9672827 L47.0729142,37.9672827 Z M29.43346,44.6203015 C29.4939083,44.6775259 29.6447872,44.7108933 29.7150684,44.6762363 C30.9545001,44.0670788 32.2018303,43.4714617 33.4141811,42.8121724 C33.8095934,42.5972989 34.113608,42.2120419 34.4542139,41.8996451 C35.5820983,40.8652541 36.7082096,39.8287675 37.8338372,38.7921197 C37.9026677,38.7284475 37.9842326,38.6668709 38.0253374,38.5865955 C38.4296155,37.7964156 38.8269622,37.0022057 39.238333,36.1851061 C38.7478153,36.0006985 38.2827665,35.8203209 37.8119147,35.6562239 C37.7480813,35.6339789 37.6474953,35.6781465 37.5783425,35.7166722 C36.4885002,36.3255073 35.3781861,36.9019422 34.3230009,37.5659061 C33.7950858,37.8981299 33.3650165,38.3876804 32.8975497,38.8140423 C32.1441223,39.501702 31.3916621,40.1909736 30.6491959,40.8905618 C30.4522151,41.0762589 30.2726434,41.2883921 30.1191854,41.5118089 C29.6114198,42.2512123 29.1188066,43.0012547 28.603626,43.7725748 C28.891521,44.0703027 29.1533024,44.3549738 29.43346,44.6203015 L29.43346,44.6203015 Z M33.9633739,43.609445 C33.3468014,46.2142019 32.7339364,48.80429 32.1005995,51.4794892 C35.0703029,49.5659384 37.9714981,47.696555 40.8535111,45.8397449 C38.5600226,45.09744 36.2739491,44.3573918 33.9633739,43.609445 L33.9633739,43.609445 Z M46.3159405,37.9924292 C43.8067725,38.4116985 41.3575692,38.8208125 38.8767716,39.2352459 C39.7217581,41.2906488 40.5498189,43.3047856 41.4014144,45.3761469 C43.0489928,42.9003463 44.6640098,40.474194 46.3159405,37.9924292 L46.3159405,37.9924292 Z M34.0668613,43.0766941 C36.3263376,43.8101333 38.5408404,44.5290649 40.8196601,45.2689519 C39.9733841,43.2072624 39.1561233,41.2176273 38.321937,39.1859201 C36.9009993,40.4849941 35.5013394,41.7648857 34.0668613,43.0766941 L34.0668613,43.0766941 Z M29.5267922,46.139246 C28.7254897,48.0547312 27.9514293,49.9050935 27.1633449,51.7888233 C28.6779371,51.7440109 30.146105,51.7006494 31.6647271,51.655837 C30.9517597,49.8162748 30.2528164,48.0128204 29.5267922,46.139246 L29.5267922,46.139246 Z M31.7179216,50.3458018 L31.7736952,50.333551 C32.3141835,48.0863255 32.8624091,45.8545749 33.4141811,43.519498 C32.1832928,44.1592826 31.0091453,44.7694073 29.8029199,45.3964575 C30.4185253,46.9964833 31.074913,48.6843606 31.7179216,50.3458018 L31.7179216,50.3458018 Z M45.4077655,37.6279664 C44.6889951,37.4375946 43.9702247,37.246578 43.2511319,37.0574957 C42.2175468,36.7857203 41.1831558,36.5173299 40.1502155,36.2431365 C40.021098,36.2088018 39.9277658,36.1863957 39.8518428,36.3419492 C39.4867351,37.089896 39.1103438,37.832201 38.7394331,38.5774074 C38.7279883,38.6004584 38.7304062,38.6302795 38.7215404,38.6881487 C40.9599001,38.3489935 43.1832686,38.0119339 45.4063147,37.6750354 L45.4077655,37.6279664 L45.4077655,37.6279664 Z M41.237801,35.9267098 L47.0961264,37.5473686 C46.7601951,36.590029 46.4486043,35.7023258 46.1281478,34.7893149 L41.2463444,35.8717422 L41.237801,35.9267098 L41.237801,35.9267098 Z M32.2145647,52.3233473 C31.4890241,52.2396869 30.74414,52.3165771 30.0082829,52.3293115 C29.4038001,52.3394668 28.7993172,52.3625178 28.1948344,52.3813776 C28.132613,52.383312 28.0705527,52.3958852 28.0084925,52.4629425 C33.0060342,52.9249286 38.0034148,53.3869147 43.0007954,53.8492232 L43.0109507,53.7824883 C41.4089906,53.5637461 39.8068692,53.3450039 38.2049091,53.1264229 C36.208665,52.8538414 34.2158059,52.554018 32.2145647,52.3233473 L32.2145647,52.3233473 Z M27.2621577,50.0645158 C27.9061334,48.5702342 28.5473688,47.0749854 29.1939236,45.5818322 C29.258563,45.4320817 29.2535659,45.3303674 29.1270275,45.2097932 C28.8565416,44.9523641 28.6052379,44.6749468 28.3096055,44.3673859 C27.9100021,46.3404179 27.5202315,48.2646077 27.1301386,50.1886363 L27.1738226,50.2091081 C27.2036437,50.1612331 27.2400739,50.1159371 27.2621577,50.0645158 L27.2621577,50.0645158 Z M39.9546854,35.5322646 C41.040659,35.252107 42.1424298,35.0330424 43.2377527,34.7886701 C43.3086787,34.7727118 43.3779927,34.7493384 43.4477903,34.7293502 L43.4369902,34.6758333 C41.8941888,34.8832918 40.3515486,35.0909116 38.731051,35.309009 C39.1728876,35.5019599 39.5133324,35.6460686 39.9546854,35.5322646 L39.9546854,35.5322646 Z" id="path-2"></path>
    </defs>
    <g id="Page-1" stroke="none" stroke-width="1" fill="none" fill-rule="evenodd" sketch:type="MSPage">
        <g id="logo" sketch:type="MSArtboardGroup">
            <g sketch:type="MSLayerGroup" transform="translate(8.000000, 11.000000)">
                <circle id="Oval-1" fill="#D8D8D8" sketch:type="MSShapeGroup" cx="25" cy="25" r="25"></circle>
                <g id="Shape">
                    <use fill="#D91404" sketch:type="MSShapeGroup" xlink:href="#path-2"></use>
                    <use fill="url(#linearGradient-1)" xlink:href="#path-2"></use>
                </g>
                <text id="RB" fill="#FFFFFF" sketch:type="MSTextLayer" font-family="Open Sans" font-size="24" font-weight="633">
                    <tspan x="8.66666667" y="32.6666667">RB</tspan>
                </text>
            </g>
        </g>
    </g>
</svg>